<mxfile host="app.diagrams.net" modified="2024-03-30T23:55:41.580Z" agent="Mozilla/5.0 (Windows NT 10.0; Win64; x64) AppleWebKit/537.36 (KHTML, like Gecko) Chrome/116.0.0.0 Safari/537.36" etag="ckeAZPcjvlDo8C8T5XKm" version="24.2.1" type="device">
  <diagram name="Page-1" id="5Z7APpFcgfUc6ZyuO-cr">
    <mxGraphModel dx="1098" dy="665" grid="1" gridSize="10" guides="1" tooltips="1" connect="1" arrows="1" fold="1" page="1" pageScale="1" pageWidth="827" pageHeight="1169" math="0" shadow="0">
      <root>
        <mxCell id="0" />
        <mxCell id="1" parent="0" />
        <mxCell id="42mja_NqprVF22DPiqrY-93" value="" style="sketch=0;pointerEvents=1;shadow=0;dashed=0;html=1;strokeColor=none;fillColor=#505050;labelPosition=center;verticalLabelPosition=bottom;verticalAlign=top;outlineConnect=0;align=center;shape=mxgraph.office.servers.3rd_party_mail_server;" vertex="1" parent="1">
          <mxGeometry x="10" y="21" width="47" height="59" as="geometry" />
        </mxCell>
        <mxCell id="42mja_NqprVF22DPiqrY-94" value="" style="sketch=0;pointerEvents=1;shadow=0;dashed=0;html=1;strokeColor=none;fillColor=#505050;labelPosition=center;verticalLabelPosition=bottom;verticalAlign=top;outlineConnect=0;align=center;shape=mxgraph.office.servers.active_directory_federation_services_proxy;" vertex="1" parent="1">
          <mxGeometry x="90" y="21" width="44" height="55" as="geometry" />
        </mxCell>
        <mxCell id="42mja_NqprVF22DPiqrY-95" value="" style="sketch=0;pointerEvents=1;shadow=0;dashed=0;html=1;strokeColor=none;fillColor=#505050;labelPosition=center;verticalLabelPosition=bottom;verticalAlign=top;outlineConnect=0;align=center;shape=mxgraph.office.servers.active_directory_federation_services_server;" vertex="1" parent="1">
          <mxGeometry x="160" y="20" width="45" height="56" as="geometry" />
        </mxCell>
        <mxCell id="42mja_NqprVF22DPiqrY-96" value="" style="sketch=0;pointerEvents=1;shadow=0;dashed=0;html=1;strokeColor=none;fillColor=#505050;labelPosition=center;verticalLabelPosition=bottom;verticalAlign=top;outlineConnect=0;align=center;shape=mxgraph.office.servers.active_directory_federation_services_server_blue;" vertex="1" parent="1">
          <mxGeometry x="230" y="20" width="45" height="56" as="geometry" />
        </mxCell>
        <mxCell id="42mja_NqprVF22DPiqrY-97" value="" style="sketch=0;pointerEvents=1;shadow=0;dashed=0;html=1;strokeColor=none;fillColor=#505050;labelPosition=center;verticalLabelPosition=bottom;verticalAlign=top;outlineConnect=0;align=center;shape=mxgraph.office.servers.active_directory_federation_services_server_orange;" vertex="1" parent="1">
          <mxGeometry x="310" y="20" width="45" height="56" as="geometry" />
        </mxCell>
        <mxCell id="42mja_NqprVF22DPiqrY-98" value="" style="sketch=0;pointerEvents=1;shadow=0;dashed=0;html=1;strokeColor=none;fillColor=#505050;labelPosition=center;verticalLabelPosition=bottom;verticalAlign=top;outlineConnect=0;align=center;shape=mxgraph.office.servers.active_directory_federation_services_server_green;" vertex="1" parent="1">
          <mxGeometry x="12" y="130" width="45" height="56" as="geometry" />
        </mxCell>
        <mxCell id="42mja_NqprVF22DPiqrY-99" value="" style="sketch=0;pointerEvents=1;shadow=0;dashed=0;html=1;strokeColor=none;fillColor=#505050;labelPosition=center;verticalLabelPosition=bottom;verticalAlign=top;outlineConnect=0;align=center;shape=mxgraph.office.servers.active_directory_federation_services_server_ghosted;" vertex="1" parent="1">
          <mxGeometry x="90" y="130" width="45" height="56" as="geometry" />
        </mxCell>
        <mxCell id="42mja_NqprVF22DPiqrY-100" value="" style="sketch=0;pointerEvents=1;shadow=0;dashed=0;html=1;strokeColor=none;fillColor=#505050;labelPosition=center;verticalLabelPosition=bottom;verticalAlign=top;outlineConnect=0;align=center;shape=mxgraph.office.servers.application_server;" vertex="1" parent="1">
          <mxGeometry x="160" y="130" width="46" height="56" as="geometry" />
        </mxCell>
        <mxCell id="42mja_NqprVF22DPiqrY-101" value="" style="sketch=0;pointerEvents=1;shadow=0;dashed=0;html=1;strokeColor=none;fillColor=#505050;labelPosition=center;verticalLabelPosition=bottom;verticalAlign=top;outlineConnect=0;align=center;shape=mxgraph.office.servers.application_server_blue;" vertex="1" parent="1">
          <mxGeometry x="230" y="130" width="46" height="56" as="geometry" />
        </mxCell>
        <mxCell id="42mja_NqprVF22DPiqrY-102" value="" style="sketch=0;pointerEvents=1;shadow=0;dashed=0;html=1;strokeColor=none;fillColor=#505050;labelPosition=center;verticalLabelPosition=bottom;verticalAlign=top;outlineConnect=0;align=center;shape=mxgraph.office.servers.application_server_orange;" vertex="1" parent="1">
          <mxGeometry x="310" y="130" width="46" height="56" as="geometry" />
        </mxCell>
        <mxCell id="42mja_NqprVF22DPiqrY-103" value="" style="sketch=0;pointerEvents=1;shadow=0;dashed=0;html=1;strokeColor=none;fillColor=#505050;labelPosition=center;verticalLabelPosition=bottom;verticalAlign=top;outlineConnect=0;align=center;shape=mxgraph.office.servers.application_server_green;" vertex="1" parent="1">
          <mxGeometry x="10" y="233" width="46" height="56" as="geometry" />
        </mxCell>
        <mxCell id="42mja_NqprVF22DPiqrY-104" value="" style="sketch=0;pointerEvents=1;shadow=0;dashed=0;html=1;strokeColor=none;fillColor=#505050;labelPosition=center;verticalLabelPosition=bottom;verticalAlign=top;outlineConnect=0;align=center;shape=mxgraph.office.servers.application_server_ghosted;" vertex="1" parent="1">
          <mxGeometry x="87" y="233" width="46" height="56" as="geometry" />
        </mxCell>
        <mxCell id="42mja_NqprVF22DPiqrY-105" value="" style="sketch=0;pointerEvents=1;shadow=0;dashed=0;html=1;strokeColor=none;fillColor=#505050;labelPosition=center;verticalLabelPosition=bottom;verticalAlign=top;outlineConnect=0;align=center;shape=mxgraph.office.servers.call_admission_control_service;" vertex="1" parent="1">
          <mxGeometry x="160" y="230" width="50" height="60" as="geometry" />
        </mxCell>
        <mxCell id="42mja_NqprVF22DPiqrY-106" value="" style="sketch=0;pointerEvents=1;shadow=0;dashed=0;html=1;strokeColor=none;fillColor=#505050;labelPosition=center;verticalLabelPosition=bottom;verticalAlign=top;outlineConnect=0;align=center;shape=mxgraph.office.servers.certificate_authority;" vertex="1" parent="1">
          <mxGeometry x="240" y="233" width="46" height="59" as="geometry" />
        </mxCell>
        <mxCell id="42mja_NqprVF22DPiqrY-107" value="" style="sketch=0;pointerEvents=1;shadow=0;dashed=0;html=1;strokeColor=none;fillColor=#505050;labelPosition=center;verticalLabelPosition=bottom;verticalAlign=top;outlineConnect=0;align=center;shape=mxgraph.office.servers.cluster_server;" vertex="1" parent="1">
          <mxGeometry x="307" y="233" width="49" height="59" as="geometry" />
        </mxCell>
        <mxCell id="42mja_NqprVF22DPiqrY-108" value="" style="sketch=0;pointerEvents=1;shadow=0;dashed=0;html=1;strokeColor=none;fillColor=#505050;labelPosition=center;verticalLabelPosition=bottom;verticalAlign=top;outlineConnect=0;align=center;shape=mxgraph.office.servers.database_server;" vertex="1" parent="1">
          <mxGeometry x="13" y="340" width="43" height="56" as="geometry" />
        </mxCell>
        <mxCell id="42mja_NqprVF22DPiqrY-109" value="" style="sketch=0;pointerEvents=1;shadow=0;dashed=0;html=1;strokeColor=none;fillColor=#505050;labelPosition=center;verticalLabelPosition=bottom;verticalAlign=top;outlineConnect=0;align=center;shape=mxgraph.office.servers.database_server_blue;" vertex="1" parent="1">
          <mxGeometry x="90" y="340" width="43" height="56" as="geometry" />
        </mxCell>
        <mxCell id="42mja_NqprVF22DPiqrY-110" value="" style="sketch=0;pointerEvents=1;shadow=0;dashed=0;html=1;strokeColor=none;fillColor=#505050;labelPosition=center;verticalLabelPosition=bottom;verticalAlign=top;outlineConnect=0;align=center;shape=mxgraph.office.servers.database_server_orange;" vertex="1" parent="1">
          <mxGeometry x="168.5" y="340" width="43" height="56" as="geometry" />
        </mxCell>
        <mxCell id="42mja_NqprVF22DPiqrY-111" value="" style="sketch=0;pointerEvents=1;shadow=0;dashed=0;html=1;strokeColor=none;fillColor=#505050;labelPosition=center;verticalLabelPosition=bottom;verticalAlign=top;outlineConnect=0;align=center;shape=mxgraph.office.servers.database_server_green;" vertex="1" parent="1">
          <mxGeometry x="243" y="340" width="43" height="56" as="geometry" />
        </mxCell>
        <mxCell id="42mja_NqprVF22DPiqrY-112" value="" style="sketch=0;pointerEvents=1;shadow=0;dashed=0;html=1;strokeColor=none;fillColor=#505050;labelPosition=center;verticalLabelPosition=bottom;verticalAlign=top;outlineConnect=0;align=center;shape=mxgraph.office.servers.database_server_ghosted;" vertex="1" parent="1">
          <mxGeometry x="320" y="340" width="43" height="56" as="geometry" />
        </mxCell>
        <mxCell id="42mja_NqprVF22DPiqrY-113" value="" style="sketch=0;pointerEvents=1;shadow=0;dashed=0;html=1;strokeColor=none;fillColor=#505050;labelPosition=center;verticalLabelPosition=bottom;verticalAlign=top;outlineConnect=0;align=center;shape=mxgraph.office.servers.datacenter;" vertex="1" parent="1">
          <mxGeometry x="10" y="436" width="53" height="53" as="geometry" />
        </mxCell>
        <mxCell id="42mja_NqprVF22DPiqrY-114" value="" style="sketch=0;pointerEvents=1;shadow=0;dashed=0;html=1;strokeColor=none;fillColor=#505050;labelPosition=center;verticalLabelPosition=bottom;verticalAlign=top;outlineConnect=0;align=center;shape=mxgraph.office.servers.dirsync_server;" vertex="1" parent="1">
          <mxGeometry x="100" y="440" width="47" height="56" as="geometry" />
        </mxCell>
        <mxCell id="42mja_NqprVF22DPiqrY-115" value="" style="sketch=0;pointerEvents=1;shadow=0;dashed=0;html=1;strokeColor=none;fillColor=#505050;labelPosition=center;verticalLabelPosition=bottom;verticalAlign=top;outlineConnect=0;align=center;shape=mxgraph.office.servers.domain_controller;" vertex="1" parent="1">
          <mxGeometry x="180" y="440" width="45" height="55" as="geometry" />
        </mxCell>
        <mxCell id="42mja_NqprVF22DPiqrY-116" value="" style="sketch=0;pointerEvents=1;shadow=0;dashed=0;html=1;strokeColor=none;fillColor=#505050;labelPosition=center;verticalLabelPosition=bottom;verticalAlign=top;outlineConnect=0;align=center;shape=mxgraph.office.servers.excahnge_client_access_server_role;" vertex="1" parent="1">
          <mxGeometry x="255" y="436" width="52" height="59" as="geometry" />
        </mxCell>
        <mxCell id="42mja_NqprVF22DPiqrY-117" value="" style="sketch=0;pointerEvents=1;shadow=0;dashed=0;html=1;strokeColor=none;fillColor=#505050;labelPosition=center;verticalLabelPosition=bottom;verticalAlign=top;outlineConnect=0;align=center;shape=mxgraph.office.servers.exchange_edge_transport_server_role;" vertex="1" parent="1">
          <mxGeometry x="330" y="436" width="52" height="55" as="geometry" />
        </mxCell>
        <mxCell id="42mja_NqprVF22DPiqrY-118" value="" style="sketch=0;pointerEvents=1;shadow=0;dashed=0;html=1;strokeColor=none;fillColor=#505050;labelPosition=center;verticalLabelPosition=bottom;verticalAlign=top;outlineConnect=0;align=center;shape=mxgraph.office.servers.exchange_hub_transport_server_role;" vertex="1" parent="1">
          <mxGeometry x="20" y="529.5" width="52" height="59" as="geometry" />
        </mxCell>
        <mxCell id="42mja_NqprVF22DPiqrY-119" value="" style="sketch=0;pointerEvents=1;shadow=0;dashed=0;html=1;strokeColor=none;fillColor=#505050;labelPosition=center;verticalLabelPosition=bottom;verticalAlign=top;outlineConnect=0;align=center;shape=mxgraph.office.servers.exchange_mailbox_server_role;" vertex="1" parent="1">
          <mxGeometry x="100" y="529.5" width="52" height="59" as="geometry" />
        </mxCell>
        <mxCell id="42mja_NqprVF22DPiqrY-120" value="" style="sketch=0;pointerEvents=1;shadow=0;dashed=0;html=1;strokeColor=none;fillColor=#505050;labelPosition=center;verticalLabelPosition=bottom;verticalAlign=top;outlineConnect=0;align=center;shape=mxgraph.office.servers.exchange_um_server_role;" vertex="1" parent="1">
          <mxGeometry x="186" y="529.5" width="52" height="59" as="geometry" />
        </mxCell>
        <mxCell id="42mja_NqprVF22DPiqrY-121" value="" style="sketch=0;pointerEvents=1;shadow=0;dashed=0;html=1;strokeColor=none;fillColor=#505050;labelPosition=center;verticalLabelPosition=bottom;verticalAlign=top;outlineConnect=0;align=center;shape=mxgraph.office.servers.exchange_client_access_server;" vertex="1" parent="1">
          <mxGeometry x="259" y="527.5" width="57" height="59" as="geometry" />
        </mxCell>
        <mxCell id="42mja_NqprVF22DPiqrY-122" value="" style="sketch=0;pointerEvents=1;shadow=0;dashed=0;html=1;strokeColor=none;fillColor=#505050;labelPosition=center;verticalLabelPosition=bottom;verticalAlign=top;outlineConnect=0;align=center;shape=mxgraph.office.servers.exchange_edge_transport_server;" vertex="1" parent="1">
          <mxGeometry x="330" y="529.5" width="57" height="55" as="geometry" />
        </mxCell>
        <mxCell id="42mja_NqprVF22DPiqrY-123" value="" style="sketch=0;pointerEvents=1;shadow=0;dashed=0;html=1;strokeColor=none;fillColor=#505050;labelPosition=center;verticalLabelPosition=bottom;verticalAlign=top;outlineConnect=0;align=center;shape=mxgraph.office.servers.exchange_mailbox_server;" vertex="1" parent="1">
          <mxGeometry x="20" y="611.5" width="57" height="59" as="geometry" />
        </mxCell>
        <mxCell id="42mja_NqprVF22DPiqrY-124" value="" style="sketch=0;pointerEvents=1;shadow=0;dashed=0;html=1;strokeColor=none;fillColor=#505050;labelPosition=center;verticalLabelPosition=bottom;verticalAlign=top;outlineConnect=0;align=center;shape=mxgraph.office.servers.exchange_server;" vertex="1" parent="1">
          <mxGeometry x="103" y="610" width="57" height="55" as="geometry" />
        </mxCell>
        <mxCell id="42mja_NqprVF22DPiqrY-125" value="" style="sketch=0;pointerEvents=1;shadow=0;dashed=0;html=1;strokeColor=none;fillColor=#505050;labelPosition=center;verticalLabelPosition=bottom;verticalAlign=top;outlineConnect=0;align=center;shape=mxgraph.office.servers.file_server;" vertex="1" parent="1">
          <mxGeometry x="186.5" y="610" width="45" height="56" as="geometry" />
        </mxCell>
        <mxCell id="42mja_NqprVF22DPiqrY-126" value="" style="sketch=0;pointerEvents=1;shadow=0;dashed=0;html=1;strokeColor=none;fillColor=#505050;labelPosition=center;verticalLabelPosition=bottom;verticalAlign=top;outlineConnect=0;align=center;shape=mxgraph.office.servers.hybrid_server;" vertex="1" parent="1">
          <mxGeometry x="255" y="610" width="59" height="52" as="geometry" />
        </mxCell>
        <mxCell id="42mja_NqprVF22DPiqrY-127" value="" style="sketch=0;pointerEvents=1;shadow=0;dashed=0;html=1;strokeColor=none;fillColor=#505050;labelPosition=center;verticalLabelPosition=bottom;verticalAlign=top;outlineConnect=0;align=center;shape=mxgraph.office.servers.mainframe;" vertex="1" parent="1">
          <mxGeometry x="321" y="620" width="58" height="42" as="geometry" />
        </mxCell>
        <mxCell id="42mja_NqprVF22DPiqrY-128" value="" style="sketch=0;pointerEvents=1;shadow=0;dashed=0;html=1;strokeColor=none;fillColor=#505050;labelPosition=center;verticalLabelPosition=bottom;verticalAlign=top;outlineConnect=0;align=center;shape=mxgraph.office.servers.on_premises_server;" vertex="1" parent="1">
          <mxGeometry x="334" y="693" width="44" height="58" as="geometry" />
        </mxCell>
        <mxCell id="42mja_NqprVF22DPiqrY-129" value="" style="sketch=0;pointerEvents=1;shadow=0;dashed=0;html=1;strokeColor=none;fillColor=#505050;labelPosition=center;verticalLabelPosition=bottom;verticalAlign=top;outlineConnect=0;align=center;shape=mxgraph.office.servers.office_web_apps_server;" vertex="1" parent="1">
          <mxGeometry x="255" y="680" width="52" height="56" as="geometry" />
        </mxCell>
        <mxCell id="42mja_NqprVF22DPiqrY-130" value="" style="sketch=0;pointerEvents=1;shadow=0;dashed=0;html=1;strokeColor=none;fillColor=#505050;labelPosition=center;verticalLabelPosition=bottom;verticalAlign=top;outlineConnect=0;align=center;shape=mxgraph.office.servers.network;" vertex="1" parent="1">
          <mxGeometry x="185.5" y="695" width="34" height="57" as="geometry" />
        </mxCell>
        <mxCell id="42mja_NqprVF22DPiqrY-131" value="" style="sketch=0;pointerEvents=1;shadow=0;dashed=0;html=1;strokeColor=none;fillColor=#505050;labelPosition=center;verticalLabelPosition=bottom;verticalAlign=top;outlineConnect=0;align=center;shape=mxgraph.office.servers.monitoring_sql_reporting_services;" vertex="1" parent="1">
          <mxGeometry x="97" y="693" width="50" height="59" as="geometry" />
        </mxCell>
        <mxCell id="42mja_NqprVF22DPiqrY-132" value="" style="sketch=0;pointerEvents=1;shadow=0;dashed=0;html=1;strokeColor=none;fillColor=#505050;labelPosition=center;verticalLabelPosition=bottom;verticalAlign=top;outlineConnect=0;align=center;shape=mxgraph.office.servers.mainframe_host;" vertex="1" parent="1">
          <mxGeometry x="14.5" y="710" width="44" height="42" as="geometry" />
        </mxCell>
        <mxCell id="42mja_NqprVF22DPiqrY-133" value="" style="sketch=0;pointerEvents=1;shadow=0;dashed=0;html=1;strokeColor=none;labelPosition=center;verticalLabelPosition=bottom;verticalAlign=top;outlineConnect=0;align=center;shape=mxgraph.office.servers.physical_host;fillColor=#2072B8;" vertex="1" parent="1">
          <mxGeometry x="29" y="790" width="27" height="52" as="geometry" />
        </mxCell>
        <mxCell id="42mja_NqprVF22DPiqrY-134" value="" style="sketch=0;pointerEvents=1;shadow=0;dashed=0;html=1;strokeColor=none;labelPosition=center;verticalLabelPosition=bottom;verticalAlign=top;outlineConnect=0;align=center;shape=mxgraph.office.servers.physical_host_farm;fillColor=#2072B8;" vertex="1" parent="1">
          <mxGeometry x="100" y="790" width="56" height="49" as="geometry" />
        </mxCell>
        <mxCell id="42mja_NqprVF22DPiqrY-135" value="" style="sketch=0;pointerEvents=1;shadow=0;dashed=0;html=1;strokeColor=none;fillColor=#505050;labelPosition=center;verticalLabelPosition=bottom;verticalAlign=top;outlineConnect=0;align=center;shape=mxgraph.office.servers.reverse_proxy;" vertex="1" parent="1">
          <mxGeometry x="191.5" y="786" width="41" height="53" as="geometry" />
        </mxCell>
        <mxCell id="42mja_NqprVF22DPiqrY-136" value="" style="sketch=0;pointerEvents=1;shadow=0;dashed=0;html=1;strokeColor=none;fillColor=#505050;labelPosition=center;verticalLabelPosition=bottom;verticalAlign=top;outlineConnect=0;align=center;shape=mxgraph.office.servers.scom;" vertex="1" parent="1">
          <mxGeometry x="251" y="790" width="56" height="53" as="geometry" />
        </mxCell>
        <mxCell id="42mja_NqprVF22DPiqrY-137" value="" style="sketch=0;pointerEvents=1;shadow=0;dashed=0;html=1;strokeColor=none;fillColor=#505050;labelPosition=center;verticalLabelPosition=bottom;verticalAlign=top;outlineConnect=0;align=center;shape=mxgraph.office.servers.server_disaster;" vertex="1" parent="1">
          <mxGeometry x="341" y="782" width="46" height="57" as="geometry" />
        </mxCell>
        <mxCell id="42mja_NqprVF22DPiqrY-138" value="" style="sketch=0;pointerEvents=1;shadow=0;dashed=0;html=1;strokeColor=none;fillColor=#505050;labelPosition=center;verticalLabelPosition=bottom;verticalAlign=top;outlineConnect=0;align=center;shape=mxgraph.office.servers.server_farm;" vertex="1" parent="1">
          <mxGeometry x="14.5" y="870" width="56" height="49" as="geometry" />
        </mxCell>
        <mxCell id="42mja_NqprVF22DPiqrY-139" value="" style="sketch=0;pointerEvents=1;shadow=0;dashed=0;html=1;strokeColor=none;fillColor=#505050;labelPosition=center;verticalLabelPosition=bottom;verticalAlign=top;outlineConnect=0;align=center;shape=mxgraph.office.servers.server_farm;fillColor=#2072B8;" vertex="1" parent="1">
          <mxGeometry x="100" y="870" width="56" height="49" as="geometry" />
        </mxCell>
        <mxCell id="42mja_NqprVF22DPiqrY-140" value="" style="sketch=0;pointerEvents=1;shadow=0;dashed=0;html=1;strokeColor=none;fillColor=#505050;labelPosition=center;verticalLabelPosition=bottom;verticalAlign=top;outlineConnect=0;align=center;shape=mxgraph.office.servers.server_farm;fillColor=#DA4026;" vertex="1" parent="1">
          <mxGeometry x="180" y="870" width="56" height="49" as="geometry" />
        </mxCell>
        <mxCell id="42mja_NqprVF22DPiqrY-141" value="" style="sketch=0;pointerEvents=1;shadow=0;dashed=0;html=1;strokeColor=none;fillColor=#505050;labelPosition=center;verticalLabelPosition=bottom;verticalAlign=top;outlineConnect=0;align=center;shape=mxgraph.office.servers.server_farm;fillColor=#7FBA42;" vertex="1" parent="1">
          <mxGeometry x="253" y="870" width="56" height="49" as="geometry" />
        </mxCell>
        <mxCell id="42mja_NqprVF22DPiqrY-142" value="" style="sketch=0;pointerEvents=1;shadow=0;dashed=0;html=1;strokeColor=none;fillColor=#505050;labelPosition=center;verticalLabelPosition=bottom;verticalAlign=top;outlineConnect=0;align=center;shape=mxgraph.office.servers.server_farm;fillColor=#CCCBCB;" vertex="1" parent="1">
          <mxGeometry x="334" y="870" width="56" height="49" as="geometry" />
        </mxCell>
        <mxCell id="42mja_NqprVF22DPiqrY-143" value="" style="sketch=0;pointerEvents=1;shadow=0;dashed=0;html=1;strokeColor=none;labelPosition=center;verticalLabelPosition=bottom;verticalAlign=top;outlineConnect=0;align=center;shape=mxgraph.office.servers.server_generic;fillColor=#CCCBCB;" vertex="1" parent="1">
          <mxGeometry x="348.5" y="938" width="27" height="52" as="geometry" />
        </mxCell>
        <mxCell id="42mja_NqprVF22DPiqrY-144" value="" style="sketch=0;pointerEvents=1;shadow=0;dashed=0;html=1;strokeColor=none;labelPosition=center;verticalLabelPosition=bottom;verticalAlign=top;outlineConnect=0;align=center;shape=mxgraph.office.servers.server_generic;fillColor=#7FBA42;" vertex="1" parent="1">
          <mxGeometry x="271" y="940" width="27" height="52" as="geometry" />
        </mxCell>
        <mxCell id="42mja_NqprVF22DPiqrY-145" value="" style="sketch=0;pointerEvents=1;shadow=0;dashed=0;html=1;strokeColor=none;labelPosition=center;verticalLabelPosition=bottom;verticalAlign=top;outlineConnect=0;align=center;shape=mxgraph.office.servers.server_generic;fillColor=#DA4026;" vertex="1" parent="1">
          <mxGeometry x="195.5" y="940" width="27" height="52" as="geometry" />
        </mxCell>
        <mxCell id="42mja_NqprVF22DPiqrY-146" value="" style="sketch=0;pointerEvents=1;shadow=0;dashed=0;html=1;strokeColor=none;labelPosition=center;verticalLabelPosition=bottom;verticalAlign=top;outlineConnect=0;align=center;shape=mxgraph.office.servers.server_generic;fillColor=#2072B8;" vertex="1" parent="1">
          <mxGeometry x="112.5" y="940" width="27" height="52" as="geometry" />
        </mxCell>
        <mxCell id="42mja_NqprVF22DPiqrY-147" value="" style="sketch=0;pointerEvents=1;shadow=0;dashed=0;html=1;strokeColor=none;fillColor=#505050;labelPosition=center;verticalLabelPosition=bottom;verticalAlign=top;outlineConnect=0;align=center;shape=mxgraph.office.servers.server_generic;" vertex="1" parent="1">
          <mxGeometry x="32.5" y="940" width="27" height="52" as="geometry" />
        </mxCell>
        <mxCell id="42mja_NqprVF22DPiqrY-148" value="" style="sketch=0;pointerEvents=1;shadow=0;dashed=0;html=1;strokeColor=none;fillColor=#505050;labelPosition=center;verticalLabelPosition=bottom;verticalAlign=top;outlineConnect=0;align=center;shape=mxgraph.office.servers.server_generic;" vertex="1" parent="1">
          <mxGeometry x="39.5" y="1021" width="20" height="39" as="geometry" />
        </mxCell>
        <mxCell id="42mja_NqprVF22DPiqrY-149" value="" style="sketch=0;pointerEvents=1;shadow=0;dashed=0;html=1;strokeColor=none;fillColor=#505050;labelPosition=center;verticalLabelPosition=bottom;verticalAlign=top;outlineConnect=0;align=center;shape=mxgraph.office.servers.server_side_code;" vertex="1" parent="1">
          <mxGeometry x="119.5" y="1012.5" width="49" height="56" as="geometry" />
        </mxCell>
        <mxCell id="42mja_NqprVF22DPiqrY-150" value="" style="sketch=0;pointerEvents=1;shadow=0;dashed=0;html=1;strokeColor=none;fillColor=#505050;labelPosition=center;verticalLabelPosition=bottom;verticalAlign=top;outlineConnect=0;align=center;shape=mxgraph.office.servers.sharepoint_server;" vertex="1" parent="1">
          <mxGeometry x="195.5" y="1012.5" width="56" height="55" as="geometry" />
        </mxCell>
        <mxCell id="42mja_NqprVF22DPiqrY-151" value="" style="sketch=0;pointerEvents=1;shadow=0;dashed=0;html=1;strokeColor=none;fillColor=#505050;labelPosition=center;verticalLabelPosition=bottom;verticalAlign=top;outlineConnect=0;align=center;shape=mxgraph.office.servers.skype_for_business_back_end_server;" vertex="1" parent="1">
          <mxGeometry x="275" y="1010" width="54" height="60" as="geometry" />
        </mxCell>
        <mxCell id="42mja_NqprVF22DPiqrY-152" value="" style="sketch=0;pointerEvents=1;shadow=0;dashed=0;html=1;strokeColor=none;fillColor=#505050;labelPosition=center;verticalLabelPosition=bottom;verticalAlign=top;outlineConnect=0;align=center;shape=mxgraph.office.servers.skype_for_business_back_end_server_mirror;" vertex="1" parent="1">
          <mxGeometry x="341" y="1010" width="54" height="60" as="geometry" />
        </mxCell>
        <mxCell id="42mja_NqprVF22DPiqrY-153" value="" style="sketch=0;pointerEvents=1;shadow=0;dashed=0;html=1;strokeColor=none;fillColor=#505050;labelPosition=center;verticalLabelPosition=bottom;verticalAlign=top;outlineConnect=0;align=center;shape=mxgraph.office.servers.skype_for_business_front_end_pool;" vertex="1" parent="1">
          <mxGeometry x="344" y="1085" width="70" height="60" as="geometry" />
        </mxCell>
        <mxCell id="42mja_NqprVF22DPiqrY-154" value="" style="sketch=0;pointerEvents=1;shadow=0;dashed=0;html=1;strokeColor=none;fillColor=#505050;labelPosition=center;verticalLabelPosition=bottom;verticalAlign=top;outlineConnect=0;align=center;shape=mxgraph.office.servers.skype_for_business_edge_server_pool;" vertex="1" parent="1">
          <mxGeometry x="267" y="1085" width="70" height="60" as="geometry" />
        </mxCell>
        <mxCell id="42mja_NqprVF22DPiqrY-155" value="" style="sketch=0;pointerEvents=1;shadow=0;dashed=0;html=1;strokeColor=none;fillColor=#505050;labelPosition=center;verticalLabelPosition=bottom;verticalAlign=top;outlineConnect=0;align=center;shape=mxgraph.office.servers.skype_for_business_edge_server;" vertex="1" parent="1">
          <mxGeometry x="195.5" y="1090" width="54" height="55" as="geometry" />
        </mxCell>
        <mxCell id="42mja_NqprVF22DPiqrY-156" value="" style="sketch=0;pointerEvents=1;shadow=0;dashed=0;html=1;strokeColor=none;fillColor=#505050;labelPosition=center;verticalLabelPosition=bottom;verticalAlign=top;outlineConnect=0;align=center;shape=mxgraph.office.servers.skype_for_business_director_array;" vertex="1" parent="1">
          <mxGeometry x="109" y="1085" width="70" height="60" as="geometry" />
        </mxCell>
        <mxCell id="42mja_NqprVF22DPiqrY-157" value="" style="sketch=0;pointerEvents=1;shadow=0;dashed=0;html=1;strokeColor=none;fillColor=#505050;labelPosition=center;verticalLabelPosition=bottom;verticalAlign=top;outlineConnect=0;align=center;shape=mxgraph.office.servers.skype_for_business_director;" vertex="1" parent="1">
          <mxGeometry x="36" y="1090" width="54" height="55" as="geometry" />
        </mxCell>
        <mxCell id="42mja_NqprVF22DPiqrY-158" value="" style="sketch=0;pointerEvents=1;shadow=0;dashed=0;html=1;strokeColor=none;fillColor=#505050;labelPosition=center;verticalLabelPosition=bottom;verticalAlign=top;outlineConnect=0;align=center;shape=mxgraph.office.servers.skype_for_business_front_end_server;" vertex="1" parent="1">
          <mxGeometry x="36" y="1172" width="54" height="60" as="geometry" />
        </mxCell>
        <mxCell id="42mja_NqprVF22DPiqrY-159" value="" style="sketch=0;pointerEvents=1;shadow=0;dashed=0;html=1;strokeColor=none;fillColor=#505050;labelPosition=center;verticalLabelPosition=bottom;verticalAlign=top;outlineConnect=0;align=center;shape=mxgraph.office.servers.skype_for_business_mediation_server;" vertex="1" parent="1">
          <mxGeometry x="117" y="1175" width="54" height="60" as="geometry" />
        </mxCell>
        <mxCell id="42mja_NqprVF22DPiqrY-160" value="" style="sketch=0;pointerEvents=1;shadow=0;dashed=0;html=1;strokeColor=none;fillColor=#505050;labelPosition=center;verticalLabelPosition=bottom;verticalAlign=top;outlineConnect=0;align=center;shape=mxgraph.office.servers.skype_for_business_monitoring_server;" vertex="1" parent="1">
          <mxGeometry x="197" y="1175" width="54" height="60" as="geometry" />
        </mxCell>
        <mxCell id="42mja_NqprVF22DPiqrY-161" value="" style="sketch=0;pointerEvents=1;shadow=0;dashed=0;html=1;strokeColor=none;fillColor=#505050;labelPosition=center;verticalLabelPosition=bottom;verticalAlign=top;outlineConnect=0;align=center;shape=mxgraph.office.servers.skype_for_business_persistent_chat_server;" vertex="1" parent="1">
          <mxGeometry x="276" y="1174" width="54" height="58" as="geometry" />
        </mxCell>
        <mxCell id="42mja_NqprVF22DPiqrY-162" value="" style="sketch=0;pointerEvents=1;shadow=0;dashed=0;html=1;strokeColor=none;fillColor=#505050;labelPosition=center;verticalLabelPosition=bottom;verticalAlign=top;outlineConnect=0;align=center;shape=mxgraph.office.servers.skype_for_business_server;" vertex="1" parent="1">
          <mxGeometry x="360" y="1173" width="54" height="55" as="geometry" />
        </mxCell>
        <mxCell id="42mja_NqprVF22DPiqrY-163" value="" style="sketch=0;pointerEvents=1;shadow=0;dashed=0;html=1;strokeColor=none;fillColor=#505050;labelPosition=center;verticalLabelPosition=bottom;verticalAlign=top;outlineConnect=0;align=center;shape=mxgraph.office.servers.trusted_application_pool;" vertex="1" parent="1">
          <mxGeometry x="349.5" y="1257" width="59" height="59" as="geometry" />
        </mxCell>
        <mxCell id="42mja_NqprVF22DPiqrY-164" value="" style="sketch=0;pointerEvents=1;shadow=0;dashed=0;html=1;strokeColor=none;fillColor=#505050;labelPosition=center;verticalLabelPosition=bottom;verticalAlign=top;outlineConnect=0;align=center;shape=mxgraph.office.servers.topology_builder;" vertex="1" parent="1">
          <mxGeometry x="267" y="1257" width="59" height="59" as="geometry" />
        </mxCell>
        <mxCell id="42mja_NqprVF22DPiqrY-165" value="" style="sketch=0;pointerEvents=1;shadow=0;dashed=0;html=1;strokeColor=none;fillColor=#505050;labelPosition=center;verticalLabelPosition=bottom;verticalAlign=top;outlineConnect=0;align=center;shape=mxgraph.office.servers.survivable_branch_server;" vertex="1" parent="1">
          <mxGeometry x="201" y="1261" width="42" height="58" as="geometry" />
        </mxCell>
        <mxCell id="42mja_NqprVF22DPiqrY-166" value="" style="sketch=0;pointerEvents=1;shadow=0;dashed=0;html=1;strokeColor=none;fillColor=#505050;labelPosition=center;verticalLabelPosition=bottom;verticalAlign=top;outlineConnect=0;align=center;shape=mxgraph.office.servers.survivable_branch_appliance;" vertex="1" parent="1">
          <mxGeometry x="123" y="1260" width="37" height="59" as="geometry" />
        </mxCell>
        <mxCell id="42mja_NqprVF22DPiqrY-167" value="" style="sketch=0;pointerEvents=1;shadow=0;dashed=0;html=1;strokeColor=none;fillColor=#505050;labelPosition=center;verticalLabelPosition=bottom;verticalAlign=top;outlineConnect=0;align=center;shape=mxgraph.office.servers.sql_server;" vertex="1" parent="1">
          <mxGeometry x="39.5" y="1260" width="43" height="56" as="geometry" />
        </mxCell>
        <mxCell id="42mja_NqprVF22DPiqrY-168" value="" style="sketch=0;pointerEvents=1;shadow=0;dashed=0;html=1;strokeColor=none;fillColor=#505050;labelPosition=center;verticalLabelPosition=bottom;verticalAlign=top;outlineConnect=0;align=center;shape=mxgraph.office.servers.trusted_application_server;" vertex="1" parent="1">
          <mxGeometry x="39.5" y="1344" width="43" height="52" as="geometry" />
        </mxCell>
        <mxCell id="42mja_NqprVF22DPiqrY-169" value="" style="sketch=0;pointerEvents=1;shadow=0;dashed=0;html=1;strokeColor=none;fillColor=#505050;labelPosition=center;verticalLabelPosition=bottom;verticalAlign=top;outlineConnect=0;align=center;shape=mxgraph.office.servers.tunnel_angled;" vertex="1" parent="1">
          <mxGeometry x="119.5" y="1352.5" width="55" height="35" as="geometry" />
        </mxCell>
        <mxCell id="42mja_NqprVF22DPiqrY-170" value="" style="sketch=0;pointerEvents=1;shadow=0;dashed=0;html=1;strokeColor=none;fillColor=#505050;labelPosition=center;verticalLabelPosition=bottom;verticalAlign=top;outlineConnect=0;align=center;shape=mxgraph.office.servers.tunnel_straight;" vertex="1" parent="1">
          <mxGeometry x="193" y="1364" width="59" height="10" as="geometry" />
        </mxCell>
        <mxCell id="42mja_NqprVF22DPiqrY-171" value="" style="sketch=0;pointerEvents=1;shadow=0;dashed=0;html=1;strokeColor=none;fillColor=#505050;labelPosition=center;verticalLabelPosition=bottom;verticalAlign=top;outlineConnect=0;align=center;shape=mxgraph.office.servers.universal_security_group;" vertex="1" parent="1">
          <mxGeometry x="271" y="1340" width="58" height="58" as="geometry" />
        </mxCell>
        <mxCell id="42mja_NqprVF22DPiqrY-172" value="" style="sketch=0;pointerEvents=1;shadow=0;dashed=0;html=1;strokeColor=none;fillColor=#505050;labelPosition=center;verticalLabelPosition=bottom;verticalAlign=top;outlineConnect=0;align=center;shape=mxgraph.office.servers.video_interop_server;" vertex="1" parent="1">
          <mxGeometry x="352" y="1340" width="54" height="60" as="geometry" />
        </mxCell>
        <mxCell id="42mja_NqprVF22DPiqrY-173" value="" style="sketch=0;pointerEvents=1;shadow=0;dashed=0;html=1;strokeColor=none;fillColor=#505050;labelPosition=center;verticalLabelPosition=bottom;verticalAlign=top;outlineConnect=0;align=center;shape=mxgraph.office.servers.virtual_server;" vertex="1" parent="1">
          <mxGeometry x="359" y="1424" width="28" height="52" as="geometry" />
        </mxCell>
        <mxCell id="42mja_NqprVF22DPiqrY-174" value="" style="sketch=0;pointerEvents=1;shadow=0;dashed=0;html=1;strokeColor=none;labelPosition=center;verticalLabelPosition=bottom;verticalAlign=top;outlineConnect=0;align=center;shape=mxgraph.office.servers.virtual_database_server;fillColor=#2072B8;" vertex="1" parent="1">
          <mxGeometry x="281.5" y="1421" width="41" height="56" as="geometry" />
        </mxCell>
        <mxCell id="42mja_NqprVF22DPiqrY-175" value="" style="sketch=0;pointerEvents=1;shadow=0;dashed=0;html=1;strokeColor=none;fillColor=#505050;labelPosition=center;verticalLabelPosition=bottom;verticalAlign=top;outlineConnect=0;align=center;shape=mxgraph.office.servers.virtual_database_server;" vertex="1" parent="1">
          <mxGeometry x="199" y="1420" width="41" height="56" as="geometry" />
        </mxCell>
        <mxCell id="42mja_NqprVF22DPiqrY-176" value="" style="sketch=0;pointerEvents=1;shadow=0;dashed=0;html=1;strokeColor=none;labelPosition=center;verticalLabelPosition=bottom;verticalAlign=top;outlineConnect=0;align=center;shape=mxgraph.office.servers.virtual_application_server;fillColor=#2072B8;" vertex="1" parent="1">
          <mxGeometry x="126.5" y="1420" width="48" height="55" as="geometry" />
        </mxCell>
        <mxCell id="42mja_NqprVF22DPiqrY-177" value="" style="sketch=0;pointerEvents=1;shadow=0;dashed=0;html=1;strokeColor=none;fillColor=#505050;labelPosition=center;verticalLabelPosition=bottom;verticalAlign=top;outlineConnect=0;align=center;shape=mxgraph.office.servers.virtual_application_server;" vertex="1" parent="1">
          <mxGeometry x="42" y="1421" width="48" height="55" as="geometry" />
        </mxCell>
        <mxCell id="42mja_NqprVF22DPiqrY-178" value="" style="sketch=0;pointerEvents=1;shadow=0;dashed=0;html=1;strokeColor=none;labelPosition=center;verticalLabelPosition=bottom;verticalAlign=top;outlineConnect=0;align=center;shape=mxgraph.office.servers.virtual_server;fillColor=#2072B8;" vertex="1" parent="1">
          <mxGeometry x="42" y="1510" width="28" height="52" as="geometry" />
        </mxCell>
        <mxCell id="42mja_NqprVF22DPiqrY-179" value="" style="sketch=0;pointerEvents=1;shadow=0;dashed=0;html=1;strokeColor=none;fillColor=#505050;labelPosition=center;verticalLabelPosition=bottom;verticalAlign=top;outlineConnect=0;align=center;shape=mxgraph.office.servers.virtual_server;" vertex="1" parent="1">
          <mxGeometry x="131.5" y="1519.5" width="20" height="37" as="geometry" />
        </mxCell>
        <mxCell id="42mja_NqprVF22DPiqrY-180" value="" style="sketch=0;pointerEvents=1;shadow=0;dashed=0;html=1;strokeColor=none;fillColor=#505050;labelPosition=center;verticalLabelPosition=bottom;verticalAlign=top;outlineConnect=0;align=center;shape=mxgraph.office.servers.virtual_web_server;" vertex="1" parent="1">
          <mxGeometry x="199" y="1510" width="44" height="55" as="geometry" />
        </mxCell>
        <mxCell id="42mja_NqprVF22DPiqrY-181" value="" style="sketch=0;pointerEvents=1;shadow=0;dashed=0;html=1;strokeColor=none;labelPosition=center;verticalLabelPosition=bottom;verticalAlign=top;outlineConnect=0;align=center;shape=mxgraph.office.servers.virtual_web_server;fillColor=#2072B8;" vertex="1" parent="1">
          <mxGeometry x="285" y="1510" width="44" height="55" as="geometry" />
        </mxCell>
        <mxCell id="42mja_NqprVF22DPiqrY-182" value="" style="sketch=0;pointerEvents=1;shadow=0;dashed=0;html=1;strokeColor=none;fillColor=#505050;labelPosition=center;verticalLabelPosition=bottom;verticalAlign=top;outlineConnect=0;align=center;shape=mxgraph.office.servers.vociemail_preview_partner;" vertex="1" parent="1">
          <mxGeometry x="360" y="1510" width="46" height="56" as="geometry" />
        </mxCell>
        <mxCell id="42mja_NqprVF22DPiqrY-183" value="" style="sketch=0;pointerEvents=1;shadow=0;dashed=0;html=1;strokeColor=none;fillColor=#505050;labelPosition=center;verticalLabelPosition=bottom;verticalAlign=top;outlineConnect=0;align=center;shape=mxgraph.office.servers.web_server;" vertex="1" parent="1">
          <mxGeometry x="42" y="1580" width="48" height="57" as="geometry" />
        </mxCell>
        <mxCell id="42mja_NqprVF22DPiqrY-184" value="" style="sketch=0;pointerEvents=1;shadow=0;dashed=0;html=1;strokeColor=none;fillColor=#505050;labelPosition=center;verticalLabelPosition=bottom;verticalAlign=top;outlineConnect=0;align=center;shape=mxgraph.office.servers.web_server_blue;" vertex="1" parent="1">
          <mxGeometry x="131" y="1580" width="48" height="57" as="geometry" />
        </mxCell>
        <mxCell id="42mja_NqprVF22DPiqrY-185" value="" style="sketch=0;pointerEvents=1;shadow=0;dashed=0;html=1;strokeColor=none;fillColor=#505050;labelPosition=center;verticalLabelPosition=bottom;verticalAlign=top;outlineConnect=0;align=center;shape=mxgraph.office.servers.web_server_orange;" vertex="1" parent="1">
          <mxGeometry x="210" y="1580" width="48" height="57" as="geometry" />
        </mxCell>
        <mxCell id="42mja_NqprVF22DPiqrY-186" value="" style="sketch=0;pointerEvents=1;shadow=0;dashed=0;html=1;strokeColor=none;fillColor=#505050;labelPosition=center;verticalLabelPosition=bottom;verticalAlign=top;outlineConnect=0;align=center;shape=mxgraph.office.servers.web_server_green;" vertex="1" parent="1">
          <mxGeometry x="286" y="1580" width="48" height="57" as="geometry" />
        </mxCell>
        <mxCell id="42mja_NqprVF22DPiqrY-187" value="" style="sketch=0;pointerEvents=1;shadow=0;dashed=0;html=1;strokeColor=none;fillColor=#505050;labelPosition=center;verticalLabelPosition=bottom;verticalAlign=top;outlineConnect=0;align=center;shape=mxgraph.office.servers.web_server_ghosted;" vertex="1" parent="1">
          <mxGeometry x="360.5" y="1580" width="48" height="57" as="geometry" />
        </mxCell>
        <mxCell id="42mja_NqprVF22DPiqrY-188" value="" style="sketch=0;pointerEvents=1;shadow=0;dashed=0;html=1;strokeColor=none;fillColor=#505050;labelPosition=center;verticalLabelPosition=bottom;verticalAlign=top;outlineConnect=0;align=center;shape=mxgraph.office.servers.windows_router;" vertex="1" parent="1">
          <mxGeometry x="45" y="1660" width="52" height="59" as="geometry" />
        </mxCell>
        <mxCell id="42mja_NqprVF22DPiqrY-189" value="" style="sketch=0;pointerEvents=1;shadow=0;dashed=0;html=1;strokeColor=none;fillColor=#505050;labelPosition=center;verticalLabelPosition=bottom;verticalAlign=top;outlineConnect=0;align=center;shape=mxgraph.office.servers.windows_server;" vertex="1" parent="1">
          <mxGeometry x="134" y="1660" width="52" height="55" as="geometry" />
        </mxCell>
      </root>
    </mxGraphModel>
  </diagram>
</mxfile>
